<svg xmlns="http://www.w3.org/2000/svg" version="1.1" width="400" height="400">
  <rect x="0" y="0" width="400" height="400" style="fill:#ffffff;shape-rendering:crispEdges;"/>
  <rect x="43.24324324324324" y="43.24324324324324" width="10.81081081081081" height="10.81081081081081" style="fill:#ef3257;shape-rendering:crispEdges;"/>
  <rect x="54.05405405405405" y="43.24324324324324" width="10.81081081081081" height="10.81081081081081" style="fill:#ef3257;shape-rendering:crispEdges;"/>
  <rect x="64.86486486486487" y="43.24324324324324" width="10.81081081081081" height="10.81081081081081" style="fill:#ef3257;shape-rendering:crispEdges;"/>
  <rect x="75.67567567567568" y="43.24324324324324" width="10.81081081081081" height="10.81081081081081" style="fill:#ef3257;shape-rendering:crispEdges;"/>
  <rect x="86.48648648648648" y="43.24324324324324" width="10.81081081081081" height="10.81081081081081" style="fill:#ef3257;shape-rendering:crispEdges;"/>
  <rect x="97.29729729729729" y="43.24324324324324" width="10.81081081081081" height="10.81081081081081" style="fill:#ef3257;shape-rendering:crispEdges;"/>
  <rect x="108.10810810810811" y="43.24324324324324" width="10.81081081081081" height="10.81081081081081" style="fill:#ef3257;shape-rendering:crispEdges;"/>
  <rect x="129.72972972972974" y="43.24324324324324" width="10.81081081081081" height="10.81081081081081" style="fill:#ef3257;shape-rendering:crispEdges;"/>
  <rect x="140.54054054054052" y="43.24324324324324" width="10.81081081081081" height="10.81081081081081" style="fill:#ef3257;shape-rendering:crispEdges;"/>
  <rect x="172.97297297297297" y="43.24324324324324" width="10.81081081081081" height="10.81081081081081" style="fill:#ef3257;shape-rendering:crispEdges;"/>
  <rect x="205.40540540540542" y="43.24324324324324" width="10.81081081081081" height="10.81081081081081" style="fill:#ef3257;shape-rendering:crispEdges;"/>
  <rect x="216.2162162162162" y="43.24324324324324" width="10.81081081081081" height="10.81081081081081" style="fill:#ef3257;shape-rendering:crispEdges;"/>
  <rect x="237.8378378378378" y="43.24324324324324" width="10.81081081081081" height="10.81081081081081" style="fill:#ef3257;shape-rendering:crispEdges;"/>
  <rect x="259.4594594594594" y="43.24324324324324" width="10.81081081081081" height="10.81081081081081" style="fill:#ef3257;shape-rendering:crispEdges;"/>
  <rect x="281.0810810810811" y="43.24324324324324" width="10.81081081081081" height="10.81081081081081" style="fill:#ef3257;shape-rendering:crispEdges;"/>
  <rect x="291.8918918918919" y="43.24324324324324" width="10.81081081081081" height="10.81081081081081" style="fill:#ef3257;shape-rendering:crispEdges;"/>
  <rect x="302.7027027027027" y="43.24324324324324" width="10.81081081081081" height="10.81081081081081" style="fill:#ef3257;shape-rendering:crispEdges;"/>
  <rect x="313.5135135135135" y="43.24324324324324" width="10.81081081081081" height="10.81081081081081" style="fill:#ef3257;shape-rendering:crispEdges;"/>
  <rect x="324.3243243243243" y="43.24324324324324" width="10.81081081081081" height="10.81081081081081" style="fill:#ef3257;shape-rendering:crispEdges;"/>
  <rect x="335.1351351351351" y="43.24324324324324" width="10.81081081081081" height="10.81081081081081" style="fill:#ef3257;shape-rendering:crispEdges;"/>
  <rect x="345.94594594594594" y="43.24324324324324" width="10.81081081081081" height="10.81081081081081" style="fill:#ef3257;shape-rendering:crispEdges;"/>
  <rect x="43.24324324324324" y="54.05405405405405" width="10.81081081081081" height="10.81081081081081" style="fill:#ef3257;shape-rendering:crispEdges;"/>
  <rect x="108.10810810810811" y="54.05405405405405" width="10.81081081081081" height="10.81081081081081" style="fill:#ef3257;shape-rendering:crispEdges;"/>
  <rect x="140.54054054054052" y="54.05405405405405" width="10.81081081081081" height="10.81081081081081" style="fill:#ef3257;shape-rendering:crispEdges;"/>
  <rect x="172.97297297297297" y="54.05405405405405" width="10.81081081081081" height="10.81081081081081" style="fill:#ef3257;shape-rendering:crispEdges;"/>
  <rect x="183.7837837837838" y="54.05405405405405" width="10.81081081081081" height="10.81081081081081" style="fill:#ef3257;shape-rendering:crispEdges;"/>
  <rect x="194.59459459459458" y="54.05405405405405" width="10.81081081081081" height="10.81081081081081" style="fill:#ef3257;shape-rendering:crispEdges;"/>
  <rect x="216.2162162162162" y="54.05405405405405" width="10.81081081081081" height="10.81081081081081" style="fill:#ef3257;shape-rendering:crispEdges;"/>
  <rect x="227.02702702702703" y="54.05405405405405" width="10.81081081081081" height="10.81081081081081" style="fill:#ef3257;shape-rendering:crispEdges;"/>
  <rect x="248.64864864864865" y="54.05405405405405" width="10.81081081081081" height="10.81081081081081" style="fill:#ef3257;shape-rendering:crispEdges;"/>
  <rect x="281.0810810810811" y="54.05405405405405" width="10.81081081081081" height="10.81081081081081" style="fill:#ef3257;shape-rendering:crispEdges;"/>
  <rect x="345.94594594594594" y="54.05405405405405" width="10.81081081081081" height="10.81081081081081" style="fill:#ef3257;shape-rendering:crispEdges;"/>
  <rect x="43.24324324324324" y="64.86486486486487" width="10.81081081081081" height="10.81081081081081" style="fill:#ef3257;shape-rendering:crispEdges;"/>
  <rect x="64.86486486486487" y="64.86486486486487" width="10.81081081081081" height="10.81081081081081" style="fill:#ef3257;shape-rendering:crispEdges;"/>
  <rect x="75.67567567567568" y="64.86486486486487" width="10.81081081081081" height="10.81081081081081" style="fill:#ef3257;shape-rendering:crispEdges;"/>
  <rect x="86.48648648648648" y="64.86486486486487" width="10.81081081081081" height="10.81081081081081" style="fill:#ef3257;shape-rendering:crispEdges;"/>
  <rect x="108.10810810810811" y="64.86486486486487" width="10.81081081081081" height="10.81081081081081" style="fill:#ef3257;shape-rendering:crispEdges;"/>
  <rect x="129.72972972972974" y="64.86486486486487" width="10.81081081081081" height="10.81081081081081" style="fill:#ef3257;shape-rendering:crispEdges;"/>
  <rect x="140.54054054054052" y="64.86486486486487" width="10.81081081081081" height="10.81081081081081" style="fill:#ef3257;shape-rendering:crispEdges;"/>
  <rect x="151.35135135135135" y="64.86486486486487" width="10.81081081081081" height="10.81081081081081" style="fill:#ef3257;shape-rendering:crispEdges;"/>
  <rect x="162.16216216216216" y="64.86486486486487" width="10.81081081081081" height="10.81081081081081" style="fill:#ef3257;shape-rendering:crispEdges;"/>
  <rect x="248.64864864864865" y="64.86486486486487" width="10.81081081081081" height="10.81081081081081" style="fill:#ef3257;shape-rendering:crispEdges;"/>
  <rect x="259.4594594594594" y="64.86486486486487" width="10.81081081081081" height="10.81081081081081" style="fill:#ef3257;shape-rendering:crispEdges;"/>
  <rect x="281.0810810810811" y="64.86486486486487" width="10.81081081081081" height="10.81081081081081" style="fill:#ef3257;shape-rendering:crispEdges;"/>
  <rect x="302.7027027027027" y="64.86486486486487" width="10.81081081081081" height="10.81081081081081" style="fill:#ef3257;shape-rendering:crispEdges;"/>
  <rect x="313.5135135135135" y="64.86486486486487" width="10.81081081081081" height="10.81081081081081" style="fill:#ef3257;shape-rendering:crispEdges;"/>
  <rect x="324.3243243243243" y="64.86486486486487" width="10.81081081081081" height="10.81081081081081" style="fill:#ef3257;shape-rendering:crispEdges;"/>
  <rect x="345.94594594594594" y="64.86486486486487" width="10.81081081081081" height="10.81081081081081" style="fill:#ef3257;shape-rendering:crispEdges;"/>
  <rect x="43.24324324324324" y="75.67567567567568" width="10.81081081081081" height="10.81081081081081" style="fill:#ef3257;shape-rendering:crispEdges;"/>
  <rect x="64.86486486486487" y="75.67567567567568" width="10.81081081081081" height="10.81081081081081" style="fill:#ef3257;shape-rendering:crispEdges;"/>
  <rect x="75.67567567567568" y="75.67567567567568" width="10.81081081081081" height="10.81081081081081" style="fill:#ef3257;shape-rendering:crispEdges;"/>
  <rect x="86.48648648648648" y="75.67567567567568" width="10.81081081081081" height="10.81081081081081" style="fill:#ef3257;shape-rendering:crispEdges;"/>
  <rect x="108.10810810810811" y="75.67567567567568" width="10.81081081081081" height="10.81081081081081" style="fill:#ef3257;shape-rendering:crispEdges;"/>
  <rect x="172.97297297297297" y="75.67567567567568" width="10.81081081081081" height="10.81081081081081" style="fill:#ef3257;shape-rendering:crispEdges;"/>
  <rect x="227.02702702702703" y="75.67567567567568" width="10.81081081081081" height="10.81081081081081" style="fill:#ef3257;shape-rendering:crispEdges;"/>
  <rect x="259.4594594594594" y="75.67567567567568" width="10.81081081081081" height="10.81081081081081" style="fill:#ef3257;shape-rendering:crispEdges;"/>
  <rect x="281.0810810810811" y="75.67567567567568" width="10.81081081081081" height="10.81081081081081" style="fill:#ef3257;shape-rendering:crispEdges;"/>
  <rect x="302.7027027027027" y="75.67567567567568" width="10.81081081081081" height="10.81081081081081" style="fill:#ef3257;shape-rendering:crispEdges;"/>
  <rect x="313.5135135135135" y="75.67567567567568" width="10.81081081081081" height="10.81081081081081" style="fill:#ef3257;shape-rendering:crispEdges;"/>
  <rect x="324.3243243243243" y="75.67567567567568" width="10.81081081081081" height="10.81081081081081" style="fill:#ef3257;shape-rendering:crispEdges;"/>
  <rect x="345.94594594594594" y="75.67567567567568" width="10.81081081081081" height="10.81081081081081" style="fill:#ef3257;shape-rendering:crispEdges;"/>
  <rect x="43.24324324324324" y="86.48648648648648" width="10.81081081081081" height="10.81081081081081" style="fill:#ef3257;shape-rendering:crispEdges;"/>
  <rect x="64.86486486486487" y="86.48648648648648" width="10.81081081081081" height="10.81081081081081" style="fill:#ef3257;shape-rendering:crispEdges;"/>
  <rect x="75.67567567567568" y="86.48648648648648" width="10.81081081081081" height="10.81081081081081" style="fill:#ef3257;shape-rendering:crispEdges;"/>
  <rect x="86.48648648648648" y="86.48648648648648" width="10.81081081081081" height="10.81081081081081" style="fill:#ef3257;shape-rendering:crispEdges;"/>
  <rect x="108.10810810810811" y="86.48648648648648" width="10.81081081081081" height="10.81081081081081" style="fill:#ef3257;shape-rendering:crispEdges;"/>
  <rect x="129.72972972972974" y="86.48648648648648" width="10.81081081081081" height="10.81081081081081" style="fill:#ef3257;shape-rendering:crispEdges;"/>
  <rect x="140.54054054054052" y="86.48648648648648" width="10.81081081081081" height="10.81081081081081" style="fill:#ef3257;shape-rendering:crispEdges;"/>
  <rect x="162.16216216216216" y="86.48648648648648" width="10.81081081081081" height="10.81081081081081" style="fill:#ef3257;shape-rendering:crispEdges;"/>
  <rect x="172.97297297297297" y="86.48648648648648" width="10.81081081081081" height="10.81081081081081" style="fill:#ef3257;shape-rendering:crispEdges;"/>
  <rect x="205.40540540540542" y="86.48648648648648" width="10.81081081081081" height="10.81081081081081" style="fill:#ef3257;shape-rendering:crispEdges;"/>
  <rect x="216.2162162162162" y="86.48648648648648" width="10.81081081081081" height="10.81081081081081" style="fill:#ef3257;shape-rendering:crispEdges;"/>
  <rect x="259.4594594594594" y="86.48648648648648" width="10.81081081081081" height="10.81081081081081" style="fill:#ef3257;shape-rendering:crispEdges;"/>
  <rect x="281.0810810810811" y="86.48648648648648" width="10.81081081081081" height="10.81081081081081" style="fill:#ef3257;shape-rendering:crispEdges;"/>
  <rect x="302.7027027027027" y="86.48648648648648" width="10.81081081081081" height="10.81081081081081" style="fill:#ef3257;shape-rendering:crispEdges;"/>
  <rect x="313.5135135135135" y="86.48648648648648" width="10.81081081081081" height="10.81081081081081" style="fill:#ef3257;shape-rendering:crispEdges;"/>
  <rect x="324.3243243243243" y="86.48648648648648" width="10.81081081081081" height="10.81081081081081" style="fill:#ef3257;shape-rendering:crispEdges;"/>
  <rect x="345.94594594594594" y="86.48648648648648" width="10.81081081081081" height="10.81081081081081" style="fill:#ef3257;shape-rendering:crispEdges;"/>
  <rect x="43.24324324324324" y="97.29729729729729" width="10.81081081081081" height="10.81081081081081" style="fill:#ef3257;shape-rendering:crispEdges;"/>
  <rect x="108.10810810810811" y="97.29729729729729" width="10.81081081081081" height="10.81081081081081" style="fill:#ef3257;shape-rendering:crispEdges;"/>
  <rect x="151.35135135135135" y="97.29729729729729" width="10.81081081081081" height="10.81081081081081" style="fill:#ef3257;shape-rendering:crispEdges;"/>
  <rect x="162.16216216216216" y="97.29729729729729" width="10.81081081081081" height="10.81081081081081" style="fill:#ef3257;shape-rendering:crispEdges;"/>
  <rect x="172.97297297297297" y="97.29729729729729" width="10.81081081081081" height="10.81081081081081" style="fill:#ef3257;shape-rendering:crispEdges;"/>
  <rect x="183.7837837837838" y="97.29729729729729" width="10.81081081081081" height="10.81081081081081" style="fill:#ef3257;shape-rendering:crispEdges;"/>
  <rect x="194.59459459459458" y="97.29729729729729" width="10.81081081081081" height="10.81081081081081" style="fill:#ef3257;shape-rendering:crispEdges;"/>
  <rect x="205.40540540540542" y="97.29729729729729" width="10.81081081081081" height="10.81081081081081" style="fill:#ef3257;shape-rendering:crispEdges;"/>
  <rect x="216.2162162162162" y="97.29729729729729" width="10.81081081081081" height="10.81081081081081" style="fill:#ef3257;shape-rendering:crispEdges;"/>
  <rect x="227.02702702702703" y="97.29729729729729" width="10.81081081081081" height="10.81081081081081" style="fill:#ef3257;shape-rendering:crispEdges;"/>
  <rect x="248.64864864864865" y="97.29729729729729" width="10.81081081081081" height="10.81081081081081" style="fill:#ef3257;shape-rendering:crispEdges;"/>
  <rect x="259.4594594594594" y="97.29729729729729" width="10.81081081081081" height="10.81081081081081" style="fill:#ef3257;shape-rendering:crispEdges;"/>
  <rect x="281.0810810810811" y="97.29729729729729" width="10.81081081081081" height="10.81081081081081" style="fill:#ef3257;shape-rendering:crispEdges;"/>
  <rect x="345.94594594594594" y="97.29729729729729" width="10.81081081081081" height="10.81081081081081" style="fill:#ef3257;shape-rendering:crispEdges;"/>
  <rect x="43.24324324324324" y="108.10810810810811" width="10.81081081081081" height="10.81081081081081" style="fill:#ef3257;shape-rendering:crispEdges;"/>
  <rect x="54.05405405405405" y="108.10810810810811" width="10.81081081081081" height="10.81081081081081" style="fill:#ef3257;shape-rendering:crispEdges;"/>
  <rect x="64.86486486486487" y="108.10810810810811" width="10.81081081081081" height="10.81081081081081" style="fill:#ef3257;shape-rendering:crispEdges;"/>
  <rect x="75.67567567567568" y="108.10810810810811" width="10.81081081081081" height="10.81081081081081" style="fill:#ef3257;shape-rendering:crispEdges;"/>
  <rect x="86.48648648648648" y="108.10810810810811" width="10.81081081081081" height="10.81081081081081" style="fill:#ef3257;shape-rendering:crispEdges;"/>
  <rect x="97.29729729729729" y="108.10810810810811" width="10.81081081081081" height="10.81081081081081" style="fill:#ef3257;shape-rendering:crispEdges;"/>
  <rect x="108.10810810810811" y="108.10810810810811" width="10.81081081081081" height="10.81081081081081" style="fill:#ef3257;shape-rendering:crispEdges;"/>
  <rect x="129.72972972972974" y="108.10810810810811" width="10.81081081081081" height="10.81081081081081" style="fill:#ef3257;shape-rendering:crispEdges;"/>
  <rect x="151.35135135135135" y="108.10810810810811" width="10.81081081081081" height="10.81081081081081" style="fill:#ef3257;shape-rendering:crispEdges;"/>
  <rect x="172.97297297297297" y="108.10810810810811" width="10.81081081081081" height="10.81081081081081" style="fill:#ef3257;shape-rendering:crispEdges;"/>
  <rect x="194.59459459459458" y="108.10810810810811" width="10.81081081081081" height="10.81081081081081" style="fill:#ef3257;shape-rendering:crispEdges;"/>
  <rect x="216.2162162162162" y="108.10810810810811" width="10.81081081081081" height="10.81081081081081" style="fill:#ef3257;shape-rendering:crispEdges;"/>
  <rect x="237.8378378378378" y="108.10810810810811" width="10.81081081081081" height="10.81081081081081" style="fill:#ef3257;shape-rendering:crispEdges;"/>
  <rect x="259.4594594594594" y="108.10810810810811" width="10.81081081081081" height="10.81081081081081" style="fill:#ef3257;shape-rendering:crispEdges;"/>
  <rect x="281.0810810810811" y="108.10810810810811" width="10.81081081081081" height="10.81081081081081" style="fill:#ef3257;shape-rendering:crispEdges;"/>
  <rect x="291.8918918918919" y="108.10810810810811" width="10.81081081081081" height="10.81081081081081" style="fill:#ef3257;shape-rendering:crispEdges;"/>
  <rect x="302.7027027027027" y="108.10810810810811" width="10.81081081081081" height="10.81081081081081" style="fill:#ef3257;shape-rendering:crispEdges;"/>
  <rect x="313.5135135135135" y="108.10810810810811" width="10.81081081081081" height="10.81081081081081" style="fill:#ef3257;shape-rendering:crispEdges;"/>
  <rect x="324.3243243243243" y="108.10810810810811" width="10.81081081081081" height="10.81081081081081" style="fill:#ef3257;shape-rendering:crispEdges;"/>
  <rect x="335.1351351351351" y="108.10810810810811" width="10.81081081081081" height="10.81081081081081" style="fill:#ef3257;shape-rendering:crispEdges;"/>
  <rect x="345.94594594594594" y="108.10810810810811" width="10.81081081081081" height="10.81081081081081" style="fill:#ef3257;shape-rendering:crispEdges;"/>
  <rect x="151.35135135135135" y="118.91891891891892" width="10.81081081081081" height="10.81081081081081" style="fill:#ef3257;shape-rendering:crispEdges;"/>
  <rect x="172.97297297297297" y="118.91891891891892" width="10.81081081081081" height="10.81081081081081" style="fill:#ef3257;shape-rendering:crispEdges;"/>
  <rect x="183.7837837837838" y="118.91891891891892" width="10.81081081081081" height="10.81081081081081" style="fill:#ef3257;shape-rendering:crispEdges;"/>
  <rect x="205.40540540540542" y="118.91891891891892" width="10.81081081081081" height="10.81081081081081" style="fill:#ef3257;shape-rendering:crispEdges;"/>
  <rect x="216.2162162162162" y="118.91891891891892" width="10.81081081081081" height="10.81081081081081" style="fill:#ef3257;shape-rendering:crispEdges;"/>
  <rect x="237.8378378378378" y="118.91891891891892" width="10.81081081081081" height="10.81081081081081" style="fill:#ef3257;shape-rendering:crispEdges;"/>
  <rect x="248.64864864864865" y="118.91891891891892" width="10.81081081081081" height="10.81081081081081" style="fill:#ef3257;shape-rendering:crispEdges;"/>
  <rect x="54.05405405405405" y="129.72972972972974" width="10.81081081081081" height="10.81081081081081" style="fill:#ef3257;shape-rendering:crispEdges;"/>
  <rect x="86.48648648648648" y="129.72972972972974" width="10.81081081081081" height="10.81081081081081" style="fill:#ef3257;shape-rendering:crispEdges;"/>
  <rect x="108.10810810810811" y="129.72972972972974" width="10.81081081081081" height="10.81081081081081" style="fill:#ef3257;shape-rendering:crispEdges;"/>
  <rect x="151.35135135135135" y="129.72972972972974" width="10.81081081081081" height="10.81081081081081" style="fill:#ef3257;shape-rendering:crispEdges;"/>
  <rect x="172.97297297297297" y="129.72972972972974" width="10.81081081081081" height="10.81081081081081" style="fill:#ef3257;shape-rendering:crispEdges;"/>
  <rect x="183.7837837837838" y="129.72972972972974" width="10.81081081081081" height="10.81081081081081" style="fill:#ef3257;shape-rendering:crispEdges;"/>
  <rect x="194.59459459459458" y="129.72972972972974" width="10.81081081081081" height="10.81081081081081" style="fill:#ef3257;shape-rendering:crispEdges;"/>
  <rect x="205.40540540540542" y="129.72972972972974" width="10.81081081081081" height="10.81081081081081" style="fill:#ef3257;shape-rendering:crispEdges;"/>
  <rect x="237.8378378378378" y="129.72972972972974" width="10.81081081081081" height="10.81081081081081" style="fill:#ef3257;shape-rendering:crispEdges;"/>
  <rect x="259.4594594594594" y="129.72972972972974" width="10.81081081081081" height="10.81081081081081" style="fill:#ef3257;shape-rendering:crispEdges;"/>
  <rect x="270.27027027027026" y="129.72972972972974" width="10.81081081081081" height="10.81081081081081" style="fill:#ef3257;shape-rendering:crispEdges;"/>
  <rect x="302.7027027027027" y="129.72972972972974" width="10.81081081081081" height="10.81081081081081" style="fill:#ef3257;shape-rendering:crispEdges;"/>
  <rect x="324.3243243243243" y="129.72972972972974" width="10.81081081081081" height="10.81081081081081" style="fill:#ef3257;shape-rendering:crispEdges;"/>
  <rect x="345.94594594594594" y="129.72972972972974" width="10.81081081081081" height="10.81081081081081" style="fill:#ef3257;shape-rendering:crispEdges;"/>
  <rect x="64.86486486486487" y="140.54054054054052" width="10.81081081081081" height="10.81081081081081" style="fill:#ef3257;shape-rendering:crispEdges;"/>
  <rect x="75.67567567567568" y="140.54054054054052" width="10.81081081081081" height="10.81081081081081" style="fill:#ef3257;shape-rendering:crispEdges;"/>
  <rect x="97.29729729729729" y="140.54054054054052" width="10.81081081081081" height="10.81081081081081" style="fill:#ef3257;shape-rendering:crispEdges;"/>
  <rect x="151.35135135135135" y="140.54054054054052" width="10.81081081081081" height="10.81081081081081" style="fill:#ef3257;shape-rendering:crispEdges;"/>
  <rect x="162.16216216216216" y="140.54054054054052" width="10.81081081081081" height="10.81081081081081" style="fill:#ef3257;shape-rendering:crispEdges;"/>
  <rect x="172.97297297297297" y="140.54054054054052" width="10.81081081081081" height="10.81081081081081" style="fill:#ef3257;shape-rendering:crispEdges;"/>
  <rect x="183.7837837837838" y="140.54054054054052" width="10.81081081081081" height="10.81081081081081" style="fill:#ef3257;shape-rendering:crispEdges;"/>
  <rect x="216.2162162162162" y="140.54054054054052" width="10.81081081081081" height="10.81081081081081" style="fill:#ef3257;shape-rendering:crispEdges;"/>
  <rect x="227.02702702702703" y="140.54054054054052" width="10.81081081081081" height="10.81081081081081" style="fill:#ef3257;shape-rendering:crispEdges;"/>
  <rect x="237.8378378378378" y="140.54054054054052" width="10.81081081081081" height="10.81081081081081" style="fill:#ef3257;shape-rendering:crispEdges;"/>
  <rect x="281.0810810810811" y="140.54054054054052" width="10.81081081081081" height="10.81081081081081" style="fill:#ef3257;shape-rendering:crispEdges;"/>
  <rect x="302.7027027027027" y="140.54054054054052" width="10.81081081081081" height="10.81081081081081" style="fill:#ef3257;shape-rendering:crispEdges;"/>
  <rect x="324.3243243243243" y="140.54054054054052" width="10.81081081081081" height="10.81081081081081" style="fill:#ef3257;shape-rendering:crispEdges;"/>
  <rect x="335.1351351351351" y="140.54054054054052" width="10.81081081081081" height="10.81081081081081" style="fill:#ef3257;shape-rendering:crispEdges;"/>
  <rect x="345.94594594594594" y="140.54054054054052" width="10.81081081081081" height="10.81081081081081" style="fill:#ef3257;shape-rendering:crispEdges;"/>
  <rect x="43.24324324324324" y="151.35135135135135" width="10.81081081081081" height="10.81081081081081" style="fill:#ef3257;shape-rendering:crispEdges;"/>
  <rect x="54.05405405405405" y="151.35135135135135" width="10.81081081081081" height="10.81081081081081" style="fill:#ef3257;shape-rendering:crispEdges;"/>
  <rect x="64.86486486486487" y="151.35135135135135" width="10.81081081081081" height="10.81081081081081" style="fill:#ef3257;shape-rendering:crispEdges;"/>
  <rect x="86.48648648648648" y="151.35135135135135" width="10.81081081081081" height="10.81081081081081" style="fill:#ef3257;shape-rendering:crispEdges;"/>
  <rect x="108.10810810810811" y="151.35135135135135" width="10.81081081081081" height="10.81081081081081" style="fill:#ef3257;shape-rendering:crispEdges;"/>
  <rect x="118.91891891891892" y="151.35135135135135" width="10.81081081081081" height="10.81081081081081" style="fill:#ef3257;shape-rendering:crispEdges;"/>
  <rect x="140.54054054054052" y="151.35135135135135" width="10.81081081081081" height="10.81081081081081" style="fill:#ef3257;shape-rendering:crispEdges;"/>
  <rect x="151.35135135135135" y="151.35135135135135" width="10.81081081081081" height="10.81081081081081" style="fill:#ef3257;shape-rendering:crispEdges;"/>
  <rect x="248.64864864864865" y="151.35135135135135" width="10.81081081081081" height="10.81081081081081" style="fill:#ef3257;shape-rendering:crispEdges;"/>
  <rect x="270.27027027027026" y="151.35135135135135" width="10.81081081081081" height="10.81081081081081" style="fill:#ef3257;shape-rendering:crispEdges;"/>
  <rect x="291.8918918918919" y="151.35135135135135" width="10.81081081081081" height="10.81081081081081" style="fill:#ef3257;shape-rendering:crispEdges;"/>
  <rect x="335.1351351351351" y="151.35135135135135" width="10.81081081081081" height="10.81081081081081" style="fill:#ef3257;shape-rendering:crispEdges;"/>
  <rect x="345.94594594594594" y="151.35135135135135" width="10.81081081081081" height="10.81081081081081" style="fill:#ef3257;shape-rendering:crispEdges;"/>
  <rect x="54.05405405405405" y="162.16216216216216" width="10.81081081081081" height="10.81081081081081" style="fill:#ef3257;shape-rendering:crispEdges;"/>
  <rect x="64.86486486486487" y="162.16216216216216" width="10.81081081081081" height="10.81081081081081" style="fill:#ef3257;shape-rendering:crispEdges;"/>
  <rect x="75.67567567567568" y="162.16216216216216" width="10.81081081081081" height="10.81081081081081" style="fill:#ef3257;shape-rendering:crispEdges;"/>
  <rect x="172.97297297297297" y="162.16216216216216" width="10.81081081081081" height="10.81081081081081" style="fill:#ef3257;shape-rendering:crispEdges;"/>
  <rect x="183.7837837837838" y="162.16216216216216" width="10.81081081081081" height="10.81081081081081" style="fill:#ef3257;shape-rendering:crispEdges;"/>
  <rect x="194.59459459459458" y="162.16216216216216" width="10.81081081081081" height="10.81081081081081" style="fill:#ef3257;shape-rendering:crispEdges;"/>
  <rect x="205.40540540540542" y="162.16216216216216" width="10.81081081081081" height="10.81081081081081" style="fill:#ef3257;shape-rendering:crispEdges;"/>
  <rect x="216.2162162162162" y="162.16216216216216" width="10.81081081081081" height="10.81081081081081" style="fill:#ef3257;shape-rendering:crispEdges;"/>
  <rect x="237.8378378378378" y="162.16216216216216" width="10.81081081081081" height="10.81081081081081" style="fill:#ef3257;shape-rendering:crispEdges;"/>
  <rect x="248.64864864864865" y="162.16216216216216" width="10.81081081081081" height="10.81081081081081" style="fill:#ef3257;shape-rendering:crispEdges;"/>
  <rect x="259.4594594594594" y="162.16216216216216" width="10.81081081081081" height="10.81081081081081" style="fill:#ef3257;shape-rendering:crispEdges;"/>
  <rect x="270.27027027027026" y="162.16216216216216" width="10.81081081081081" height="10.81081081081081" style="fill:#ef3257;shape-rendering:crispEdges;"/>
  <rect x="291.8918918918919" y="162.16216216216216" width="10.81081081081081" height="10.81081081081081" style="fill:#ef3257;shape-rendering:crispEdges;"/>
  <rect x="302.7027027027027" y="162.16216216216216" width="10.81081081081081" height="10.81081081081081" style="fill:#ef3257;shape-rendering:crispEdges;"/>
  <rect x="313.5135135135135" y="162.16216216216216" width="10.81081081081081" height="10.81081081081081" style="fill:#ef3257;shape-rendering:crispEdges;"/>
  <rect x="324.3243243243243" y="162.16216216216216" width="10.81081081081081" height="10.81081081081081" style="fill:#ef3257;shape-rendering:crispEdges;"/>
  <rect x="335.1351351351351" y="162.16216216216216" width="10.81081081081081" height="10.81081081081081" style="fill:#ef3257;shape-rendering:crispEdges;"/>
  <rect x="54.05405405405405" y="172.97297297297297" width="10.81081081081081" height="10.81081081081081" style="fill:#ef3257;shape-rendering:crispEdges;"/>
  <rect x="75.67567567567568" y="172.97297297297297" width="10.81081081081081" height="10.81081081081081" style="fill:#ef3257;shape-rendering:crispEdges;"/>
  <rect x="108.10810810810811" y="172.97297297297297" width="10.81081081081081" height="10.81081081081081" style="fill:#ef3257;shape-rendering:crispEdges;"/>
  <rect x="140.54054054054052" y="172.97297297297297" width="10.81081081081081" height="10.81081081081081" style="fill:#ef3257;shape-rendering:crispEdges;"/>
  <rect x="162.16216216216216" y="172.97297297297297" width="10.81081081081081" height="10.81081081081081" style="fill:#ef3257;shape-rendering:crispEdges;"/>
  <rect x="172.97297297297297" y="172.97297297297297" width="10.81081081081081" height="10.81081081081081" style="fill:#ef3257;shape-rendering:crispEdges;"/>
  <rect x="183.7837837837838" y="172.97297297297297" width="10.81081081081081" height="10.81081081081081" style="fill:#ef3257;shape-rendering:crispEdges;"/>
  <rect x="205.40540540540542" y="172.97297297297297" width="10.81081081081081" height="10.81081081081081" style="fill:#ef3257;shape-rendering:crispEdges;"/>
  <rect x="227.02702702702703" y="172.97297297297297" width="10.81081081081081" height="10.81081081081081" style="fill:#ef3257;shape-rendering:crispEdges;"/>
  <rect x="237.8378378378378" y="172.97297297297297" width="10.81081081081081" height="10.81081081081081" style="fill:#ef3257;shape-rendering:crispEdges;"/>
  <rect x="270.27027027027026" y="172.97297297297297" width="10.81081081081081" height="10.81081081081081" style="fill:#ef3257;shape-rendering:crispEdges;"/>
  <rect x="291.8918918918919" y="172.97297297297297" width="10.81081081081081" height="10.81081081081081" style="fill:#ef3257;shape-rendering:crispEdges;"/>
  <rect x="313.5135135135135" y="172.97297297297297" width="10.81081081081081" height="10.81081081081081" style="fill:#ef3257;shape-rendering:crispEdges;"/>
  <rect x="54.05405405405405" y="183.7837837837838" width="10.81081081081081" height="10.81081081081081" style="fill:#ef3257;shape-rendering:crispEdges;"/>
  <rect x="75.67567567567568" y="183.7837837837838" width="10.81081081081081" height="10.81081081081081" style="fill:#ef3257;shape-rendering:crispEdges;"/>
  <rect x="86.48648648648648" y="183.7837837837838" width="10.81081081081081" height="10.81081081081081" style="fill:#ef3257;shape-rendering:crispEdges;"/>
  <rect x="140.54054054054052" y="183.7837837837838" width="10.81081081081081" height="10.81081081081081" style="fill:#ef3257;shape-rendering:crispEdges;"/>
  <rect x="162.16216216216216" y="183.7837837837838" width="10.81081081081081" height="10.81081081081081" style="fill:#ef3257;shape-rendering:crispEdges;"/>
  <rect x="194.59459459459458" y="183.7837837837838" width="10.81081081081081" height="10.81081081081081" style="fill:#ef3257;shape-rendering:crispEdges;"/>
  <rect x="227.02702702702703" y="183.7837837837838" width="10.81081081081081" height="10.81081081081081" style="fill:#ef3257;shape-rendering:crispEdges;"/>
  <rect x="248.64864864864865" y="183.7837837837838" width="10.81081081081081" height="10.81081081081081" style="fill:#ef3257;shape-rendering:crispEdges;"/>
  <rect x="281.0810810810811" y="183.7837837837838" width="10.81081081081081" height="10.81081081081081" style="fill:#ef3257;shape-rendering:crispEdges;"/>
  <rect x="313.5135135135135" y="183.7837837837838" width="10.81081081081081" height="10.81081081081081" style="fill:#ef3257;shape-rendering:crispEdges;"/>
  <rect x="345.94594594594594" y="183.7837837837838" width="10.81081081081081" height="10.81081081081081" style="fill:#ef3257;shape-rendering:crispEdges;"/>
  <rect x="43.24324324324324" y="194.59459459459458" width="10.81081081081081" height="10.81081081081081" style="fill:#ef3257;shape-rendering:crispEdges;"/>
  <rect x="97.29729729729729" y="194.59459459459458" width="10.81081081081081" height="10.81081081081081" style="fill:#ef3257;shape-rendering:crispEdges;"/>
  <rect x="108.10810810810811" y="194.59459459459458" width="10.81081081081081" height="10.81081081081081" style="fill:#ef3257;shape-rendering:crispEdges;"/>
  <rect x="151.35135135135135" y="194.59459459459458" width="10.81081081081081" height="10.81081081081081" style="fill:#ef3257;shape-rendering:crispEdges;"/>
  <rect x="162.16216216216216" y="194.59459459459458" width="10.81081081081081" height="10.81081081081081" style="fill:#ef3257;shape-rendering:crispEdges;"/>
  <rect x="172.97297297297297" y="194.59459459459458" width="10.81081081081081" height="10.81081081081081" style="fill:#ef3257;shape-rendering:crispEdges;"/>
  <rect x="183.7837837837838" y="194.59459459459458" width="10.81081081081081" height="10.81081081081081" style="fill:#ef3257;shape-rendering:crispEdges;"/>
  <rect x="237.8378378378378" y="194.59459459459458" width="10.81081081081081" height="10.81081081081081" style="fill:#ef3257;shape-rendering:crispEdges;"/>
  <rect x="248.64864864864865" y="194.59459459459458" width="10.81081081081081" height="10.81081081081081" style="fill:#ef3257;shape-rendering:crispEdges;"/>
  <rect x="259.4594594594594" y="194.59459459459458" width="10.81081081081081" height="10.81081081081081" style="fill:#ef3257;shape-rendering:crispEdges;"/>
  <rect x="270.27027027027026" y="194.59459459459458" width="10.81081081081081" height="10.81081081081081" style="fill:#ef3257;shape-rendering:crispEdges;"/>
  <rect x="335.1351351351351" y="194.59459459459458" width="10.81081081081081" height="10.81081081081081" style="fill:#ef3257;shape-rendering:crispEdges;"/>
  <rect x="345.94594594594594" y="194.59459459459458" width="10.81081081081081" height="10.81081081081081" style="fill:#ef3257;shape-rendering:crispEdges;"/>
  <rect x="64.86486486486487" y="205.40540540540542" width="10.81081081081081" height="10.81081081081081" style="fill:#ef3257;shape-rendering:crispEdges;"/>
  <rect x="97.29729729729729" y="205.40540540540542" width="10.81081081081081" height="10.81081081081081" style="fill:#ef3257;shape-rendering:crispEdges;"/>
  <rect x="118.91891891891892" y="205.40540540540542" width="10.81081081081081" height="10.81081081081081" style="fill:#ef3257;shape-rendering:crispEdges;"/>
  <rect x="140.54054054054052" y="205.40540540540542" width="10.81081081081081" height="10.81081081081081" style="fill:#ef3257;shape-rendering:crispEdges;"/>
  <rect x="151.35135135135135" y="205.40540540540542" width="10.81081081081081" height="10.81081081081081" style="fill:#ef3257;shape-rendering:crispEdges;"/>
  <rect x="172.97297297297297" y="205.40540540540542" width="10.81081081081081" height="10.81081081081081" style="fill:#ef3257;shape-rendering:crispEdges;"/>
  <rect x="183.7837837837838" y="205.40540540540542" width="10.81081081081081" height="10.81081081081081" style="fill:#ef3257;shape-rendering:crispEdges;"/>
  <rect x="205.40540540540542" y="205.40540540540542" width="10.81081081081081" height="10.81081081081081" style="fill:#ef3257;shape-rendering:crispEdges;"/>
  <rect x="216.2162162162162" y="205.40540540540542" width="10.81081081081081" height="10.81081081081081" style="fill:#ef3257;shape-rendering:crispEdges;"/>
  <rect x="259.4594594594594" y="205.40540540540542" width="10.81081081081081" height="10.81081081081081" style="fill:#ef3257;shape-rendering:crispEdges;"/>
  <rect x="291.8918918918919" y="205.40540540540542" width="10.81081081081081" height="10.81081081081081" style="fill:#ef3257;shape-rendering:crispEdges;"/>
  <rect x="302.7027027027027" y="205.40540540540542" width="10.81081081081081" height="10.81081081081081" style="fill:#ef3257;shape-rendering:crispEdges;"/>
  <rect x="335.1351351351351" y="205.40540540540542" width="10.81081081081081" height="10.81081081081081" style="fill:#ef3257;shape-rendering:crispEdges;"/>
  <rect x="75.67567567567568" y="216.2162162162162" width="10.81081081081081" height="10.81081081081081" style="fill:#ef3257;shape-rendering:crispEdges;"/>
  <rect x="86.48648648648648" y="216.2162162162162" width="10.81081081081081" height="10.81081081081081" style="fill:#ef3257;shape-rendering:crispEdges;"/>
  <rect x="97.29729729729729" y="216.2162162162162" width="10.81081081081081" height="10.81081081081081" style="fill:#ef3257;shape-rendering:crispEdges;"/>
  <rect x="108.10810810810811" y="216.2162162162162" width="10.81081081081081" height="10.81081081081081" style="fill:#ef3257;shape-rendering:crispEdges;"/>
  <rect x="129.72972972972974" y="216.2162162162162" width="10.81081081081081" height="10.81081081081081" style="fill:#ef3257;shape-rendering:crispEdges;"/>
  <rect x="140.54054054054052" y="216.2162162162162" width="10.81081081081081" height="10.81081081081081" style="fill:#ef3257;shape-rendering:crispEdges;"/>
  <rect x="151.35135135135135" y="216.2162162162162" width="10.81081081081081" height="10.81081081081081" style="fill:#ef3257;shape-rendering:crispEdges;"/>
  <rect x="162.16216216216216" y="216.2162162162162" width="10.81081081081081" height="10.81081081081081" style="fill:#ef3257;shape-rendering:crispEdges;"/>
  <rect x="172.97297297297297" y="216.2162162162162" width="10.81081081081081" height="10.81081081081081" style="fill:#ef3257;shape-rendering:crispEdges;"/>
  <rect x="216.2162162162162" y="216.2162162162162" width="10.81081081081081" height="10.81081081081081" style="fill:#ef3257;shape-rendering:crispEdges;"/>
  <rect x="237.8378378378378" y="216.2162162162162" width="10.81081081081081" height="10.81081081081081" style="fill:#ef3257;shape-rendering:crispEdges;"/>
  <rect x="248.64864864864865" y="216.2162162162162" width="10.81081081081081" height="10.81081081081081" style="fill:#ef3257;shape-rendering:crispEdges;"/>
  <rect x="259.4594594594594" y="216.2162162162162" width="10.81081081081081" height="10.81081081081081" style="fill:#ef3257;shape-rendering:crispEdges;"/>
  <rect x="270.27027027027026" y="216.2162162162162" width="10.81081081081081" height="10.81081081081081" style="fill:#ef3257;shape-rendering:crispEdges;"/>
  <rect x="302.7027027027027" y="216.2162162162162" width="10.81081081081081" height="10.81081081081081" style="fill:#ef3257;shape-rendering:crispEdges;"/>
  <rect x="313.5135135135135" y="216.2162162162162" width="10.81081081081081" height="10.81081081081081" style="fill:#ef3257;shape-rendering:crispEdges;"/>
  <rect x="345.94594594594594" y="216.2162162162162" width="10.81081081081081" height="10.81081081081081" style="fill:#ef3257;shape-rendering:crispEdges;"/>
  <rect x="54.05405405405405" y="227.02702702702703" width="10.81081081081081" height="10.81081081081081" style="fill:#ef3257;shape-rendering:crispEdges;"/>
  <rect x="86.48648648648648" y="227.02702702702703" width="10.81081081081081" height="10.81081081081081" style="fill:#ef3257;shape-rendering:crispEdges;"/>
  <rect x="118.91891891891892" y="227.02702702702703" width="10.81081081081081" height="10.81081081081081" style="fill:#ef3257;shape-rendering:crispEdges;"/>
  <rect x="129.72972972972974" y="227.02702702702703" width="10.81081081081081" height="10.81081081081081" style="fill:#ef3257;shape-rendering:crispEdges;"/>
  <rect x="140.54054054054052" y="227.02702702702703" width="10.81081081081081" height="10.81081081081081" style="fill:#ef3257;shape-rendering:crispEdges;"/>
  <rect x="162.16216216216216" y="227.02702702702703" width="10.81081081081081" height="10.81081081081081" style="fill:#ef3257;shape-rendering:crispEdges;"/>
  <rect x="172.97297297297297" y="227.02702702702703" width="10.81081081081081" height="10.81081081081081" style="fill:#ef3257;shape-rendering:crispEdges;"/>
  <rect x="194.59459459459458" y="227.02702702702703" width="10.81081081081081" height="10.81081081081081" style="fill:#ef3257;shape-rendering:crispEdges;"/>
  <rect x="205.40540540540542" y="227.02702702702703" width="10.81081081081081" height="10.81081081081081" style="fill:#ef3257;shape-rendering:crispEdges;"/>
  <rect x="216.2162162162162" y="227.02702702702703" width="10.81081081081081" height="10.81081081081081" style="fill:#ef3257;shape-rendering:crispEdges;"/>
  <rect x="227.02702702702703" y="227.02702702702703" width="10.81081081081081" height="10.81081081081081" style="fill:#ef3257;shape-rendering:crispEdges;"/>
  <rect x="248.64864864864865" y="227.02702702702703" width="10.81081081081081" height="10.81081081081081" style="fill:#ef3257;shape-rendering:crispEdges;"/>
  <rect x="259.4594594594594" y="227.02702702702703" width="10.81081081081081" height="10.81081081081081" style="fill:#ef3257;shape-rendering:crispEdges;"/>
  <rect x="281.0810810810811" y="227.02702702702703" width="10.81081081081081" height="10.81081081081081" style="fill:#ef3257;shape-rendering:crispEdges;"/>
  <rect x="291.8918918918919" y="227.02702702702703" width="10.81081081081081" height="10.81081081081081" style="fill:#ef3257;shape-rendering:crispEdges;"/>
  <rect x="302.7027027027027" y="227.02702702702703" width="10.81081081081081" height="10.81081081081081" style="fill:#ef3257;shape-rendering:crispEdges;"/>
  <rect x="335.1351351351351" y="227.02702702702703" width="10.81081081081081" height="10.81081081081081" style="fill:#ef3257;shape-rendering:crispEdges;"/>
  <rect x="345.94594594594594" y="227.02702702702703" width="10.81081081081081" height="10.81081081081081" style="fill:#ef3257;shape-rendering:crispEdges;"/>
  <rect x="43.24324324324324" y="237.8378378378378" width="10.81081081081081" height="10.81081081081081" style="fill:#ef3257;shape-rendering:crispEdges;"/>
  <rect x="54.05405405405405" y="237.8378378378378" width="10.81081081081081" height="10.81081081081081" style="fill:#ef3257;shape-rendering:crispEdges;"/>
  <rect x="75.67567567567568" y="237.8378378378378" width="10.81081081081081" height="10.81081081081081" style="fill:#ef3257;shape-rendering:crispEdges;"/>
  <rect x="86.48648648648648" y="237.8378378378378" width="10.81081081081081" height="10.81081081081081" style="fill:#ef3257;shape-rendering:crispEdges;"/>
  <rect x="97.29729729729729" y="237.8378378378378" width="10.81081081081081" height="10.81081081081081" style="fill:#ef3257;shape-rendering:crispEdges;"/>
  <rect x="108.10810810810811" y="237.8378378378378" width="10.81081081081081" height="10.81081081081081" style="fill:#ef3257;shape-rendering:crispEdges;"/>
  <rect x="140.54054054054052" y="237.8378378378378" width="10.81081081081081" height="10.81081081081081" style="fill:#ef3257;shape-rendering:crispEdges;"/>
  <rect x="172.97297297297297" y="237.8378378378378" width="10.81081081081081" height="10.81081081081081" style="fill:#ef3257;shape-rendering:crispEdges;"/>
  <rect x="291.8918918918919" y="237.8378378378378" width="10.81081081081081" height="10.81081081081081" style="fill:#ef3257;shape-rendering:crispEdges;"/>
  <rect x="335.1351351351351" y="237.8378378378378" width="10.81081081081081" height="10.81081081081081" style="fill:#ef3257;shape-rendering:crispEdges;"/>
  <rect x="43.24324324324324" y="248.64864864864865" width="10.81081081081081" height="10.81081081081081" style="fill:#ef3257;shape-rendering:crispEdges;"/>
  <rect x="54.05405405405405" y="248.64864864864865" width="10.81081081081081" height="10.81081081081081" style="fill:#ef3257;shape-rendering:crispEdges;"/>
  <rect x="86.48648648648648" y="248.64864864864865" width="10.81081081081081" height="10.81081081081081" style="fill:#ef3257;shape-rendering:crispEdges;"/>
  <rect x="97.29729729729729" y="248.64864864864865" width="10.81081081081081" height="10.81081081081081" style="fill:#ef3257;shape-rendering:crispEdges;"/>
  <rect x="118.91891891891892" y="248.64864864864865" width="10.81081081081081" height="10.81081081081081" style="fill:#ef3257;shape-rendering:crispEdges;"/>
  <rect x="216.2162162162162" y="248.64864864864865" width="10.81081081081081" height="10.81081081081081" style="fill:#ef3257;shape-rendering:crispEdges;"/>
  <rect x="248.64864864864865" y="248.64864864864865" width="10.81081081081081" height="10.81081081081081" style="fill:#ef3257;shape-rendering:crispEdges;"/>
  <rect x="270.27027027027026" y="248.64864864864865" width="10.81081081081081" height="10.81081081081081" style="fill:#ef3257;shape-rendering:crispEdges;"/>
  <rect x="281.0810810810811" y="248.64864864864865" width="10.81081081081081" height="10.81081081081081" style="fill:#ef3257;shape-rendering:crispEdges;"/>
  <rect x="313.5135135135135" y="248.64864864864865" width="10.81081081081081" height="10.81081081081081" style="fill:#ef3257;shape-rendering:crispEdges;"/>
  <rect x="335.1351351351351" y="248.64864864864865" width="10.81081081081081" height="10.81081081081081" style="fill:#ef3257;shape-rendering:crispEdges;"/>
  <rect x="54.05405405405405" y="259.4594594594594" width="10.81081081081081" height="10.81081081081081" style="fill:#ef3257;shape-rendering:crispEdges;"/>
  <rect x="97.29729729729729" y="259.4594594594594" width="10.81081081081081" height="10.81081081081081" style="fill:#ef3257;shape-rendering:crispEdges;"/>
  <rect x="108.10810810810811" y="259.4594594594594" width="10.81081081081081" height="10.81081081081081" style="fill:#ef3257;shape-rendering:crispEdges;"/>
  <rect x="118.91891891891892" y="259.4594594594594" width="10.81081081081081" height="10.81081081081081" style="fill:#ef3257;shape-rendering:crispEdges;"/>
  <rect x="140.54054054054052" y="259.4594594594594" width="10.81081081081081" height="10.81081081081081" style="fill:#ef3257;shape-rendering:crispEdges;"/>
  <rect x="172.97297297297297" y="259.4594594594594" width="10.81081081081081" height="10.81081081081081" style="fill:#ef3257;shape-rendering:crispEdges;"/>
  <rect x="183.7837837837838" y="259.4594594594594" width="10.81081081081081" height="10.81081081081081" style="fill:#ef3257;shape-rendering:crispEdges;"/>
  <rect x="205.40540540540542" y="259.4594594594594" width="10.81081081081081" height="10.81081081081081" style="fill:#ef3257;shape-rendering:crispEdges;"/>
  <rect x="216.2162162162162" y="259.4594594594594" width="10.81081081081081" height="10.81081081081081" style="fill:#ef3257;shape-rendering:crispEdges;"/>
  <rect x="227.02702702702703" y="259.4594594594594" width="10.81081081081081" height="10.81081081081081" style="fill:#ef3257;shape-rendering:crispEdges;"/>
  <rect x="237.8378378378378" y="259.4594594594594" width="10.81081081081081" height="10.81081081081081" style="fill:#ef3257;shape-rendering:crispEdges;"/>
  <rect x="248.64864864864865" y="259.4594594594594" width="10.81081081081081" height="10.81081081081081" style="fill:#ef3257;shape-rendering:crispEdges;"/>
  <rect x="259.4594594594594" y="259.4594594594594" width="10.81081081081081" height="10.81081081081081" style="fill:#ef3257;shape-rendering:crispEdges;"/>
  <rect x="270.27027027027026" y="259.4594594594594" width="10.81081081081081" height="10.81081081081081" style="fill:#ef3257;shape-rendering:crispEdges;"/>
  <rect x="281.0810810810811" y="259.4594594594594" width="10.81081081081081" height="10.81081081081081" style="fill:#ef3257;shape-rendering:crispEdges;"/>
  <rect x="291.8918918918919" y="259.4594594594594" width="10.81081081081081" height="10.81081081081081" style="fill:#ef3257;shape-rendering:crispEdges;"/>
  <rect x="302.7027027027027" y="259.4594594594594" width="10.81081081081081" height="10.81081081081081" style="fill:#ef3257;shape-rendering:crispEdges;"/>
  <rect x="335.1351351351351" y="259.4594594594594" width="10.81081081081081" height="10.81081081081081" style="fill:#ef3257;shape-rendering:crispEdges;"/>
  <rect x="345.94594594594594" y="259.4594594594594" width="10.81081081081081" height="10.81081081081081" style="fill:#ef3257;shape-rendering:crispEdges;"/>
  <rect x="140.54054054054052" y="270.27027027027026" width="10.81081081081081" height="10.81081081081081" style="fill:#ef3257;shape-rendering:crispEdges;"/>
  <rect x="151.35135135135135" y="270.27027027027026" width="10.81081081081081" height="10.81081081081081" style="fill:#ef3257;shape-rendering:crispEdges;"/>
  <rect x="162.16216216216216" y="270.27027027027026" width="10.81081081081081" height="10.81081081081081" style="fill:#ef3257;shape-rendering:crispEdges;"/>
  <rect x="172.97297297297297" y="270.27027027027026" width="10.81081081081081" height="10.81081081081081" style="fill:#ef3257;shape-rendering:crispEdges;"/>
  <rect x="183.7837837837838" y="270.27027027027026" width="10.81081081081081" height="10.81081081081081" style="fill:#ef3257;shape-rendering:crispEdges;"/>
  <rect x="194.59459459459458" y="270.27027027027026" width="10.81081081081081" height="10.81081081081081" style="fill:#ef3257;shape-rendering:crispEdges;"/>
  <rect x="216.2162162162162" y="270.27027027027026" width="10.81081081081081" height="10.81081081081081" style="fill:#ef3257;shape-rendering:crispEdges;"/>
  <rect x="248.64864864864865" y="270.27027027027026" width="10.81081081081081" height="10.81081081081081" style="fill:#ef3257;shape-rendering:crispEdges;"/>
  <rect x="259.4594594594594" y="270.27027027027026" width="10.81081081081081" height="10.81081081081081" style="fill:#ef3257;shape-rendering:crispEdges;"/>
  <rect x="302.7027027027027" y="270.27027027027026" width="10.81081081081081" height="10.81081081081081" style="fill:#ef3257;shape-rendering:crispEdges;"/>
  <rect x="324.3243243243243" y="270.27027027027026" width="10.81081081081081" height="10.81081081081081" style="fill:#ef3257;shape-rendering:crispEdges;"/>
  <rect x="43.24324324324324" y="281.0810810810811" width="10.81081081081081" height="10.81081081081081" style="fill:#ef3257;shape-rendering:crispEdges;"/>
  <rect x="54.05405405405405" y="281.0810810810811" width="10.81081081081081" height="10.81081081081081" style="fill:#ef3257;shape-rendering:crispEdges;"/>
  <rect x="64.86486486486487" y="281.0810810810811" width="10.81081081081081" height="10.81081081081081" style="fill:#ef3257;shape-rendering:crispEdges;"/>
  <rect x="75.67567567567568" y="281.0810810810811" width="10.81081081081081" height="10.81081081081081" style="fill:#ef3257;shape-rendering:crispEdges;"/>
  <rect x="86.48648648648648" y="281.0810810810811" width="10.81081081081081" height="10.81081081081081" style="fill:#ef3257;shape-rendering:crispEdges;"/>
  <rect x="97.29729729729729" y="281.0810810810811" width="10.81081081081081" height="10.81081081081081" style="fill:#ef3257;shape-rendering:crispEdges;"/>
  <rect x="108.10810810810811" y="281.0810810810811" width="10.81081081081081" height="10.81081081081081" style="fill:#ef3257;shape-rendering:crispEdges;"/>
  <rect x="140.54054054054052" y="281.0810810810811" width="10.81081081081081" height="10.81081081081081" style="fill:#ef3257;shape-rendering:crispEdges;"/>
  <rect x="172.97297297297297" y="281.0810810810811" width="10.81081081081081" height="10.81081081081081" style="fill:#ef3257;shape-rendering:crispEdges;"/>
  <rect x="183.7837837837838" y="281.0810810810811" width="10.81081081081081" height="10.81081081081081" style="fill:#ef3257;shape-rendering:crispEdges;"/>
  <rect x="194.59459459459458" y="281.0810810810811" width="10.81081081081081" height="10.81081081081081" style="fill:#ef3257;shape-rendering:crispEdges;"/>
  <rect x="216.2162162162162" y="281.0810810810811" width="10.81081081081081" height="10.81081081081081" style="fill:#ef3257;shape-rendering:crispEdges;"/>
  <rect x="227.02702702702703" y="281.0810810810811" width="10.81081081081081" height="10.81081081081081" style="fill:#ef3257;shape-rendering:crispEdges;"/>
  <rect x="237.8378378378378" y="281.0810810810811" width="10.81081081081081" height="10.81081081081081" style="fill:#ef3257;shape-rendering:crispEdges;"/>
  <rect x="248.64864864864865" y="281.0810810810811" width="10.81081081081081" height="10.81081081081081" style="fill:#ef3257;shape-rendering:crispEdges;"/>
  <rect x="259.4594594594594" y="281.0810810810811" width="10.81081081081081" height="10.81081081081081" style="fill:#ef3257;shape-rendering:crispEdges;"/>
  <rect x="281.0810810810811" y="281.0810810810811" width="10.81081081081081" height="10.81081081081081" style="fill:#ef3257;shape-rendering:crispEdges;"/>
  <rect x="302.7027027027027" y="281.0810810810811" width="10.81081081081081" height="10.81081081081081" style="fill:#ef3257;shape-rendering:crispEdges;"/>
  <rect x="345.94594594594594" y="281.0810810810811" width="10.81081081081081" height="10.81081081081081" style="fill:#ef3257;shape-rendering:crispEdges;"/>
  <rect x="43.24324324324324" y="291.8918918918919" width="10.81081081081081" height="10.81081081081081" style="fill:#ef3257;shape-rendering:crispEdges;"/>
  <rect x="108.10810810810811" y="291.8918918918919" width="10.81081081081081" height="10.81081081081081" style="fill:#ef3257;shape-rendering:crispEdges;"/>
  <rect x="151.35135135135135" y="291.8918918918919" width="10.81081081081081" height="10.81081081081081" style="fill:#ef3257;shape-rendering:crispEdges;"/>
  <rect x="162.16216216216216" y="291.8918918918919" width="10.81081081081081" height="10.81081081081081" style="fill:#ef3257;shape-rendering:crispEdges;"/>
  <rect x="205.40540540540542" y="291.8918918918919" width="10.81081081081081" height="10.81081081081081" style="fill:#ef3257;shape-rendering:crispEdges;"/>
  <rect x="216.2162162162162" y="291.8918918918919" width="10.81081081081081" height="10.81081081081081" style="fill:#ef3257;shape-rendering:crispEdges;"/>
  <rect x="227.02702702702703" y="291.8918918918919" width="10.81081081081081" height="10.81081081081081" style="fill:#ef3257;shape-rendering:crispEdges;"/>
  <rect x="259.4594594594594" y="291.8918918918919" width="10.81081081081081" height="10.81081081081081" style="fill:#ef3257;shape-rendering:crispEdges;"/>
  <rect x="302.7027027027027" y="291.8918918918919" width="10.81081081081081" height="10.81081081081081" style="fill:#ef3257;shape-rendering:crispEdges;"/>
  <rect x="324.3243243243243" y="291.8918918918919" width="10.81081081081081" height="10.81081081081081" style="fill:#ef3257;shape-rendering:crispEdges;"/>
  <rect x="335.1351351351351" y="291.8918918918919" width="10.81081081081081" height="10.81081081081081" style="fill:#ef3257;shape-rendering:crispEdges;"/>
  <rect x="43.24324324324324" y="302.7027027027027" width="10.81081081081081" height="10.81081081081081" style="fill:#ef3257;shape-rendering:crispEdges;"/>
  <rect x="64.86486486486487" y="302.7027027027027" width="10.81081081081081" height="10.81081081081081" style="fill:#ef3257;shape-rendering:crispEdges;"/>
  <rect x="75.67567567567568" y="302.7027027027027" width="10.81081081081081" height="10.81081081081081" style="fill:#ef3257;shape-rendering:crispEdges;"/>
  <rect x="86.48648648648648" y="302.7027027027027" width="10.81081081081081" height="10.81081081081081" style="fill:#ef3257;shape-rendering:crispEdges;"/>
  <rect x="108.10810810810811" y="302.7027027027027" width="10.81081081081081" height="10.81081081081081" style="fill:#ef3257;shape-rendering:crispEdges;"/>
  <rect x="129.72972972972974" y="302.7027027027027" width="10.81081081081081" height="10.81081081081081" style="fill:#ef3257;shape-rendering:crispEdges;"/>
  <rect x="151.35135135135135" y="302.7027027027027" width="10.81081081081081" height="10.81081081081081" style="fill:#ef3257;shape-rendering:crispEdges;"/>
  <rect x="205.40540540540542" y="302.7027027027027" width="10.81081081081081" height="10.81081081081081" style="fill:#ef3257;shape-rendering:crispEdges;"/>
  <rect x="237.8378378378378" y="302.7027027027027" width="10.81081081081081" height="10.81081081081081" style="fill:#ef3257;shape-rendering:crispEdges;"/>
  <rect x="259.4594594594594" y="302.7027027027027" width="10.81081081081081" height="10.81081081081081" style="fill:#ef3257;shape-rendering:crispEdges;"/>
  <rect x="270.27027027027026" y="302.7027027027027" width="10.81081081081081" height="10.81081081081081" style="fill:#ef3257;shape-rendering:crispEdges;"/>
  <rect x="281.0810810810811" y="302.7027027027027" width="10.81081081081081" height="10.81081081081081" style="fill:#ef3257;shape-rendering:crispEdges;"/>
  <rect x="291.8918918918919" y="302.7027027027027" width="10.81081081081081" height="10.81081081081081" style="fill:#ef3257;shape-rendering:crispEdges;"/>
  <rect x="302.7027027027027" y="302.7027027027027" width="10.81081081081081" height="10.81081081081081" style="fill:#ef3257;shape-rendering:crispEdges;"/>
  <rect x="313.5135135135135" y="302.7027027027027" width="10.81081081081081" height="10.81081081081081" style="fill:#ef3257;shape-rendering:crispEdges;"/>
  <rect x="324.3243243243243" y="302.7027027027027" width="10.81081081081081" height="10.81081081081081" style="fill:#ef3257;shape-rendering:crispEdges;"/>
  <rect x="345.94594594594594" y="302.7027027027027" width="10.81081081081081" height="10.81081081081081" style="fill:#ef3257;shape-rendering:crispEdges;"/>
  <rect x="43.24324324324324" y="313.5135135135135" width="10.81081081081081" height="10.81081081081081" style="fill:#ef3257;shape-rendering:crispEdges;"/>
  <rect x="64.86486486486487" y="313.5135135135135" width="10.81081081081081" height="10.81081081081081" style="fill:#ef3257;shape-rendering:crispEdges;"/>
  <rect x="75.67567567567568" y="313.5135135135135" width="10.81081081081081" height="10.81081081081081" style="fill:#ef3257;shape-rendering:crispEdges;"/>
  <rect x="86.48648648648648" y="313.5135135135135" width="10.81081081081081" height="10.81081081081081" style="fill:#ef3257;shape-rendering:crispEdges;"/>
  <rect x="108.10810810810811" y="313.5135135135135" width="10.81081081081081" height="10.81081081081081" style="fill:#ef3257;shape-rendering:crispEdges;"/>
  <rect x="140.54054054054052" y="313.5135135135135" width="10.81081081081081" height="10.81081081081081" style="fill:#ef3257;shape-rendering:crispEdges;"/>
  <rect x="151.35135135135135" y="313.5135135135135" width="10.81081081081081" height="10.81081081081081" style="fill:#ef3257;shape-rendering:crispEdges;"/>
  <rect x="172.97297297297297" y="313.5135135135135" width="10.81081081081081" height="10.81081081081081" style="fill:#ef3257;shape-rendering:crispEdges;"/>
  <rect x="183.7837837837838" y="313.5135135135135" width="10.81081081081081" height="10.81081081081081" style="fill:#ef3257;shape-rendering:crispEdges;"/>
  <rect x="194.59459459459458" y="313.5135135135135" width="10.81081081081081" height="10.81081081081081" style="fill:#ef3257;shape-rendering:crispEdges;"/>
  <rect x="227.02702702702703" y="313.5135135135135" width="10.81081081081081" height="10.81081081081081" style="fill:#ef3257;shape-rendering:crispEdges;"/>
  <rect x="237.8378378378378" y="313.5135135135135" width="10.81081081081081" height="10.81081081081081" style="fill:#ef3257;shape-rendering:crispEdges;"/>
  <rect x="259.4594594594594" y="313.5135135135135" width="10.81081081081081" height="10.81081081081081" style="fill:#ef3257;shape-rendering:crispEdges;"/>
  <rect x="270.27027027027026" y="313.5135135135135" width="10.81081081081081" height="10.81081081081081" style="fill:#ef3257;shape-rendering:crispEdges;"/>
  <rect x="313.5135135135135" y="313.5135135135135" width="10.81081081081081" height="10.81081081081081" style="fill:#ef3257;shape-rendering:crispEdges;"/>
  <rect x="324.3243243243243" y="313.5135135135135" width="10.81081081081081" height="10.81081081081081" style="fill:#ef3257;shape-rendering:crispEdges;"/>
  <rect x="345.94594594594594" y="313.5135135135135" width="10.81081081081081" height="10.81081081081081" style="fill:#ef3257;shape-rendering:crispEdges;"/>
  <rect x="43.24324324324324" y="324.3243243243243" width="10.81081081081081" height="10.81081081081081" style="fill:#ef3257;shape-rendering:crispEdges;"/>
  <rect x="64.86486486486487" y="324.3243243243243" width="10.81081081081081" height="10.81081081081081" style="fill:#ef3257;shape-rendering:crispEdges;"/>
  <rect x="75.67567567567568" y="324.3243243243243" width="10.81081081081081" height="10.81081081081081" style="fill:#ef3257;shape-rendering:crispEdges;"/>
  <rect x="86.48648648648648" y="324.3243243243243" width="10.81081081081081" height="10.81081081081081" style="fill:#ef3257;shape-rendering:crispEdges;"/>
  <rect x="108.10810810810811" y="324.3243243243243" width="10.81081081081081" height="10.81081081081081" style="fill:#ef3257;shape-rendering:crispEdges;"/>
  <rect x="151.35135135135135" y="324.3243243243243" width="10.81081081081081" height="10.81081081081081" style="fill:#ef3257;shape-rendering:crispEdges;"/>
  <rect x="313.5135135135135" y="324.3243243243243" width="10.81081081081081" height="10.81081081081081" style="fill:#ef3257;shape-rendering:crispEdges;"/>
  <rect x="324.3243243243243" y="324.3243243243243" width="10.81081081081081" height="10.81081081081081" style="fill:#ef3257;shape-rendering:crispEdges;"/>
  <rect x="43.24324324324324" y="335.1351351351351" width="10.81081081081081" height="10.81081081081081" style="fill:#ef3257;shape-rendering:crispEdges;"/>
  <rect x="108.10810810810811" y="335.1351351351351" width="10.81081081081081" height="10.81081081081081" style="fill:#ef3257;shape-rendering:crispEdges;"/>
  <rect x="129.72972972972974" y="335.1351351351351" width="10.81081081081081" height="10.81081081081081" style="fill:#ef3257;shape-rendering:crispEdges;"/>
  <rect x="140.54054054054052" y="335.1351351351351" width="10.81081081081081" height="10.81081081081081" style="fill:#ef3257;shape-rendering:crispEdges;"/>
  <rect x="151.35135135135135" y="335.1351351351351" width="10.81081081081081" height="10.81081081081081" style="fill:#ef3257;shape-rendering:crispEdges;"/>
  <rect x="162.16216216216216" y="335.1351351351351" width="10.81081081081081" height="10.81081081081081" style="fill:#ef3257;shape-rendering:crispEdges;"/>
  <rect x="172.97297297297297" y="335.1351351351351" width="10.81081081081081" height="10.81081081081081" style="fill:#ef3257;shape-rendering:crispEdges;"/>
  <rect x="194.59459459459458" y="335.1351351351351" width="10.81081081081081" height="10.81081081081081" style="fill:#ef3257;shape-rendering:crispEdges;"/>
  <rect x="227.02702702702703" y="335.1351351351351" width="10.81081081081081" height="10.81081081081081" style="fill:#ef3257;shape-rendering:crispEdges;"/>
  <rect x="237.8378378378378" y="335.1351351351351" width="10.81081081081081" height="10.81081081081081" style="fill:#ef3257;shape-rendering:crispEdges;"/>
  <rect x="248.64864864864865" y="335.1351351351351" width="10.81081081081081" height="10.81081081081081" style="fill:#ef3257;shape-rendering:crispEdges;"/>
  <rect x="270.27027027027026" y="335.1351351351351" width="10.81081081081081" height="10.81081081081081" style="fill:#ef3257;shape-rendering:crispEdges;"/>
  <rect x="281.0810810810811" y="335.1351351351351" width="10.81081081081081" height="10.81081081081081" style="fill:#ef3257;shape-rendering:crispEdges;"/>
  <rect x="313.5135135135135" y="335.1351351351351" width="10.81081081081081" height="10.81081081081081" style="fill:#ef3257;shape-rendering:crispEdges;"/>
  <rect x="335.1351351351351" y="335.1351351351351" width="10.81081081081081" height="10.81081081081081" style="fill:#ef3257;shape-rendering:crispEdges;"/>
  <rect x="345.94594594594594" y="335.1351351351351" width="10.81081081081081" height="10.81081081081081" style="fill:#ef3257;shape-rendering:crispEdges;"/>
  <rect x="43.24324324324324" y="345.94594594594594" width="10.81081081081081" height="10.81081081081081" style="fill:#ef3257;shape-rendering:crispEdges;"/>
  <rect x="54.05405405405405" y="345.94594594594594" width="10.81081081081081" height="10.81081081081081" style="fill:#ef3257;shape-rendering:crispEdges;"/>
  <rect x="64.86486486486487" y="345.94594594594594" width="10.81081081081081" height="10.81081081081081" style="fill:#ef3257;shape-rendering:crispEdges;"/>
  <rect x="75.67567567567568" y="345.94594594594594" width="10.81081081081081" height="10.81081081081081" style="fill:#ef3257;shape-rendering:crispEdges;"/>
  <rect x="86.48648648648648" y="345.94594594594594" width="10.81081081081081" height="10.81081081081081" style="fill:#ef3257;shape-rendering:crispEdges;"/>
  <rect x="97.29729729729729" y="345.94594594594594" width="10.81081081081081" height="10.81081081081081" style="fill:#ef3257;shape-rendering:crispEdges;"/>
  <rect x="108.10810810810811" y="345.94594594594594" width="10.81081081081081" height="10.81081081081081" style="fill:#ef3257;shape-rendering:crispEdges;"/>
  <rect x="140.54054054054052" y="345.94594594594594" width="10.81081081081081" height="10.81081081081081" style="fill:#ef3257;shape-rendering:crispEdges;"/>
  <rect x="151.35135135135135" y="345.94594594594594" width="10.81081081081081" height="10.81081081081081" style="fill:#ef3257;shape-rendering:crispEdges;"/>
  <rect x="162.16216216216216" y="345.94594594594594" width="10.81081081081081" height="10.81081081081081" style="fill:#ef3257;shape-rendering:crispEdges;"/>
  <rect x="172.97297297297297" y="345.94594594594594" width="10.81081081081081" height="10.81081081081081" style="fill:#ef3257;shape-rendering:crispEdges;"/>
  <rect x="183.7837837837838" y="345.94594594594594" width="10.81081081081081" height="10.81081081081081" style="fill:#ef3257;shape-rendering:crispEdges;"/>
  <rect x="194.59459459459458" y="345.94594594594594" width="10.81081081081081" height="10.81081081081081" style="fill:#ef3257;shape-rendering:crispEdges;"/>
  <rect x="216.2162162162162" y="345.94594594594594" width="10.81081081081081" height="10.81081081081081" style="fill:#ef3257;shape-rendering:crispEdges;"/>
  <rect x="227.02702702702703" y="345.94594594594594" width="10.81081081081081" height="10.81081081081081" style="fill:#ef3257;shape-rendering:crispEdges;"/>
  <rect x="237.8378378378378" y="345.94594594594594" width="10.81081081081081" height="10.81081081081081" style="fill:#ef3257;shape-rendering:crispEdges;"/>
  <rect x="248.64864864864865" y="345.94594594594594" width="10.81081081081081" height="10.81081081081081" style="fill:#ef3257;shape-rendering:crispEdges;"/>
  <rect x="270.27027027027026" y="345.94594594594594" width="10.81081081081081" height="10.81081081081081" style="fill:#ef3257;shape-rendering:crispEdges;"/>
  <rect x="281.0810810810811" y="345.94594594594594" width="10.81081081081081" height="10.81081081081081" style="fill:#ef3257;shape-rendering:crispEdges;"/>
  <rect x="302.7027027027027" y="345.94594594594594" width="10.81081081081081" height="10.81081081081081" style="fill:#ef3257;shape-rendering:crispEdges;"/>
  <rect x="313.5135135135135" y="345.94594594594594" width="10.81081081081081" height="10.81081081081081" style="fill:#ef3257;shape-rendering:crispEdges;"/>
  <rect x="324.3243243243243" y="345.94594594594594" width="10.81081081081081" height="10.81081081081081" style="fill:#ef3257;shape-rendering:crispEdges;"/>
  <rect x="345.94594594594594" y="345.94594594594594" width="10.81081081081081" height="10.81081081081081" style="fill:#ef3257;shape-rendering:crispEdges;"/>
</svg>